# xmcd
#
# Track frame offsets:
#	150
#	13580
#	30610
#	45400
#	63635
#	76315
#	91627
#	127977
#	141105
#	156492
#	174362
#	191572
#	210052
#	232217
#	260087
#	265960
#
# Disc length: 3777 seconds
#
# Revision: 0
# Processed by: cddbd v1.5PL3 Copyright (c) Steve Scherf et al.
# Submitted via: dBpowerAMP V4.0
#
DISCID=d30ebf10
DTITLE=The Beat Daddy's - Houserocking Rhythm and Blues
DYEAR=1989
DGENRE=Blues
TTITLE0=Train In The Distance Blues
TTITLE1=This Is Gonna Change Your Mind
TTITLE2=That's Why
TTITLE3=Livin' This Love
TTITLE4=Tick Of The Clock
TTITLE5=Tired Of Tryin'
TTITLE6=Ruby's Blues
TTITLE7=RIP
TTITLE8=She Knocks Me Out
TTITLE9=Something That I Said
TTITLE10=She Goes Down
TTITLE11=I'll Always Love You
TTITLE12=In Love With The Blues
TTITLE13=Rock Me Baby
TTITLE14=Train In The Distance Blues (Slight Return)
TTITLE15=Train In The Distance
EXTD=
EXTT0=
EXTT1=
EXTT2=
EXTT3=
EXTT4=
EXTT5=
EXTT6=
EXTT7=
EXTT8=
EXTT9=
EXTT10=
EXTT11=
EXTT12=
EXTT13=
EXTT14=
EXTT15=
PLAYORDER=
